<svg width="880" height="204" viewBox="0 0 880 204" fill="none" xmlns="http://www.w3.org/2000/svg">
<path d="M203.006 101.509C203.006 157.573 157.568 203.01 101.505 203.01H0.00399573V147.991H101.505C102.874 147.991 104.217 147.936 105.549 147.8C116.761 146.85 126.854 141.899 134.366 134.366C142.792 125.96 147.987 114.332 147.987 101.505C147.987 77.2018 129.337 57.2439 105.543 55.2104C104.216 55.0784 102.868 55.0191 101.5 55.0191L0 55.0201V0H101.501C129.541 0 154.91 11.3645 173.276 29.7308C191.641 48.1022 203.006 73.4662 203.006 101.509Z" fill="#FF003C"/>
<path d="M101.505 147.991C102.874 147.991 104.217 147.936 105.548 147.8C88.7216 180.584 54.5688 203.01 0.00390625 203.01V148.94C18.406 148.94 21.576 148.617 24.6304 147.991H101.505Z" fill="#5C0D0A" fill-opacity="0.6"/>
<path d="M24.6265 55.024C21.5721 54.398 18.4021 54.0737 0 54.0737V0.00390625C54.5649 0.00390625 88.7177 22.4301 105.545 55.2143C104.217 55.0823 102.869 55.023 101.501 55.023L24.6265 55.024Z" fill="#5C0D0A" fill-opacity="0.6"/>
<path d="M0 0.00390625V55.024C26.1946 55.024 47.4311 75.3123 47.4311 101.505C47.4311 127.699 26.1946 147.987 0 147.987V203.006C56.0604 203.006 101.501 157.561 101.501 101.505C101.505 45.4496 56.0604 0.00390625 0 0.00390625Z" fill="#FF003C"/>
<path d="M266.032 194L261.664 183.008H248.128L243.76 194H239.152L252.688 161.072H257.104L270.64 194H266.032ZM249.664 179.168H260.128L254.896 166.016L249.664 179.168ZM274.219 194V161.072H278.539V194H274.219ZM296.719 194V161.072H310.303C316.495 161.072 320.623 164.816 320.623 170.384C320.623 176.048 316.495 179.84 310.303 179.84H301.039V194H296.719ZM301.039 176H310.303C313.903 176 316.303 173.744 316.303 170.384C316.303 167.12 313.903 164.912 310.303 164.912H301.039V176ZM333.245 194.48C325.997 194.48 321.197 189.488 321.197 182C321.197 174.512 325.997 169.52 333.245 169.52C340.493 169.52 345.293 174.512 345.293 182C345.293 189.488 340.493 194.48 333.245 194.48ZM333.245 191.12C338.189 191.12 341.453 187.472 341.453 182C341.453 176.528 338.189 172.88 333.245 172.88C328.301 172.88 325.037 176.528 325.037 182C325.037 187.472 328.301 191.12 333.245 191.12ZM354.049 194L345.793 170H349.825L355.921 189.632L361.297 170H364.801L370.129 189.632L376.225 170H380.257L372.001 194H368.065L363.025 175.328L357.985 194H354.049ZM392.776 194.48C385.528 194.48 380.728 189.488 380.728 182C380.728 174.512 385.528 169.52 392.776 169.52C400.024 169.52 404.824 174.656 404.824 182.384L404.44 182.768H384.616C384.808 187.76 388.072 191.12 392.776 191.12C396.328 191.12 399.4 189.008 400.456 185.84H404.296C402.76 191.024 398.152 194.48 392.776 194.48ZM384.808 179.408H400.744C399.832 175.232 396.952 172.88 392.776 172.88C388.6 172.88 385.72 175.232 384.808 179.408ZM409.443 194V170H413.283V173.312C415.251 170.72 417.459 169.52 420.147 169.52C420.867 169.52 421.635 169.712 422.115 170V172.88H420.483C416.163 172.88 413.283 175.712 413.283 179.984V194H409.443ZM434.917 194.48C427.669 194.48 422.869 189.488 422.869 182C422.869 174.512 427.669 169.52 434.917 169.52C442.165 169.52 446.965 174.656 446.965 182.384L446.581 182.768H426.757C426.949 187.76 430.213 191.12 434.917 191.12C438.469 191.12 441.541 189.008 442.597 185.84H446.437C444.901 191.024 440.293 194.48 434.917 194.48ZM426.949 179.408H442.885C441.973 175.232 439.093 172.88 434.917 172.88C430.741 172.88 427.861 175.232 426.949 179.408ZM462.335 194.48C455.183 194.48 450.431 189.488 450.431 182C450.431 174.512 455.183 169.52 462.335 169.52C465.695 169.52 469.199 171.344 471.071 174.08V161.072H474.911V194H471.071V189.92C469.199 192.656 465.695 194.48 462.335 194.48ZM462.719 191.12C467.711 191.12 471.071 187.472 471.071 182C471.071 176.528 467.711 172.88 462.719 172.88C457.631 172.88 454.271 176.528 454.271 182C454.271 187.472 457.631 191.12 462.719 191.12ZM492.61 194V161.072H504.37C513.778 161.072 520.066 167.648 520.066 177.488C520.066 187.376 513.778 194 504.37 194H492.61ZM496.93 190.16H504.37C511.186 190.16 515.746 185.072 515.746 177.488C515.746 169.952 511.186 164.912 504.37 164.912H496.93V190.16ZM525.13 166.352V161.072H528.97V166.352H525.13ZM525.13 194V170H528.97V194H525.13ZM545.395 203.408C539.347 203.408 535.219 200.192 533.923 194.48H537.859C538.867 198.032 541.603 200.048 545.395 200.048C550.483 200.048 553.363 196.928 553.363 191.408V189.728C551.635 192.272 548.323 194 545.059 194C538.195 194 533.587 189.104 533.587 181.76C533.587 174.416 538.195 169.52 545.059 169.52C548.275 169.52 551.587 171.248 553.363 173.84V170H557.203V191.408C557.203 199.088 552.931 203.408 545.395 203.408ZM545.443 190.64C550.195 190.64 553.363 187.088 553.363 181.76C553.363 176.432 550.195 172.88 545.443 172.88C540.643 172.88 537.427 176.432 537.427 181.76C537.427 187.088 540.643 190.64 545.443 190.64ZM562.958 166.352V161.072H566.798V166.352H562.958ZM562.958 194V170H566.798V194H562.958ZM582.12 194.48C577.848 194.48 574.968 191.84 574.968 187.856V173.36H571.128V170H574.968V161.072H578.808V170H585.816V173.36H578.808V187.856C578.808 189.824 580.056 191.12 581.88 191.12H586.056V194C584.856 194.288 583.272 194.48 582.12 194.48ZM600.003 194.48C592.995 194.48 588.291 189.488 588.291 182C588.291 174.512 592.995 169.52 600.003 169.52C603.267 169.52 606.675 171.344 608.547 174.032V170H612.387V194H608.547V189.968C606.675 192.656 603.267 194.48 600.003 194.48ZM600.387 191.12C605.283 191.12 608.547 187.472 608.547 182C608.547 176.528 605.283 172.88 600.387 172.88C595.443 172.88 592.131 176.528 592.131 182C592.131 187.472 595.443 191.12 600.387 191.12ZM618.13 194V161.072H621.97V194H618.13ZM639.657 194V161.072H660.921V164.912H643.977V174.416H659.193V178.256H643.977V190.16H660.921V194H639.657ZM661.59 194L670.854 181.376L662.454 170H667.158L673.062 178.304L678.918 170H683.574L675.27 181.376L684.486 194H679.782L673.062 184.448L666.294 194H661.59ZM697.51 194.48C690.262 194.48 685.462 189.488 685.462 182C685.462 174.512 690.262 169.52 697.51 169.52C703.654 169.52 708.31 173.504 709.222 179.504H705.574C704.854 175.52 701.638 172.88 697.51 172.88C692.566 172.88 689.302 176.528 689.302 182C689.302 187.472 692.566 191.12 697.51 191.12C701.686 191.12 704.902 188.384 705.622 184.256H709.27C708.358 190.4 703.654 194.48 697.51 194.48ZM724.792 194.48C717.544 194.48 712.744 189.488 712.744 182C712.744 174.512 717.544 169.52 724.792 169.52C732.04 169.52 736.84 174.656 736.84 182.384L736.456 182.768H716.632C716.824 187.76 720.088 191.12 724.792 191.12C728.344 191.12 731.416 189.008 732.472 185.84H736.312C734.776 191.024 730.168 194.48 724.792 194.48ZM716.824 179.408H732.76C731.848 175.232 728.968 172.88 724.792 172.88C720.616 172.88 717.736 175.232 716.824 179.408ZM741.458 194V161.072H745.298V194H741.458ZM752.005 194V161.072H755.845V194H752.005ZM772.51 194.48C765.262 194.48 760.462 189.488 760.462 182C760.462 174.512 765.262 169.52 772.51 169.52C779.758 169.52 784.558 174.656 784.558 182.384L784.174 182.768H764.35C764.542 187.76 767.806 191.12 772.51 191.12C776.062 191.12 779.134 189.008 780.19 185.84H784.03C782.494 191.024 777.886 194.48 772.51 194.48ZM764.542 179.408H780.478C779.566 175.232 776.686 172.88 772.51 172.88C768.334 172.88 765.454 175.232 764.542 179.408ZM789.177 194V170H793.017V173.072C794.697 170.96 797.721 169.52 800.505 169.52C806.505 169.52 810.489 173.36 810.489 179.12V194H806.649V179.792C806.649 175.664 803.913 172.88 799.833 172.88C795.753 172.88 793.017 175.664 793.017 179.792V194H789.177ZM826.698 194.48C819.45 194.48 814.65 189.488 814.65 182C814.65 174.512 819.45 169.52 826.698 169.52C832.842 169.52 837.498 173.504 838.41 179.504H834.762C834.042 175.52 830.826 172.88 826.698 172.88C821.754 172.88 818.49 176.528 818.49 182C818.49 187.472 821.754 191.12 826.698 191.12C830.874 191.12 834.09 188.384 834.81 184.256H838.458C837.546 190.4 832.842 194.48 826.698 194.48ZM853.979 194.48C846.731 194.48 841.931 189.488 841.931 182C841.931 174.512 846.731 169.52 853.979 169.52C861.227 169.52 866.027 174.656 866.027 182.384L865.643 182.768H845.819C846.011 187.76 849.275 191.12 853.979 191.12C857.531 191.12 860.603 189.008 861.659 185.84H865.499C863.963 191.024 859.355 194.48 853.979 194.48ZM846.011 179.408H861.947C861.035 175.232 858.155 172.88 853.979 172.88C849.803 172.88 846.923 175.232 846.011 179.408Z" fill="black"/>
<path d="M249.59 139.358C245.959 139.358 243.18 138.395 241.255 136.469C239.329 134.544 238.367 131.766 238.367 128.134V34.2223C238.367 30.5921 239.329 27.8138 241.255 25.8877C243.18 23.9626 245.959 23 249.59 23H281.609C301.084 23 316.131 28.0061 326.749 38.0183C337.368 48.0316 342.676 62.3911 342.676 81.096C342.676 90.4484 341.328 98.7288 338.633 105.935C335.937 113.143 331.976 119.222 326.749 124.174C321.523 129.124 315.141 132.893 307.604 135.479C300.066 138.065 291.401 139.358 281.609 139.358H249.59ZM259.493 121.863H280.288C287.11 121.863 293.025 121.01 298.031 119.305C303.038 117.599 307.218 115.069 310.575 111.713C313.931 108.356 316.434 104.121 318.085 99.004C319.735 93.8874 320.56 87.9177 320.56 81.096C320.56 67.4524 317.204 57.2745 310.492 50.5622C303.781 43.8509 293.712 40.4948 280.288 40.4948H259.493V121.863ZM395.218 141.009C386.086 141.009 378.218 139.302 371.616 135.892C365.015 132.481 359.926 127.639 356.35 121.368C352.774 115.095 350.986 107.669 350.986 99.0858C350.986 90.7236 352.719 83.4067 356.185 77.1353C359.651 70.8628 364.437 65.9396 370.543 62.3635C376.65 58.7874 383.61 56.9994 391.422 56.9994C397.144 56.9994 402.288 57.9343 406.855 59.8052C411.421 61.6751 415.326 64.3714 418.573 67.8923C421.819 71.4131 424.294 75.6766 425.999 80.6838C427.706 85.6899 428.558 91.3291 428.558 97.6006C428.558 99.5809 427.87 101.094 426.494 102.139C425.12 103.185 423.167 103.707 420.635 103.707H367.656V91.8242H414.033L411.393 94.2996C411.393 89.2383 410.651 85.0024 409.165 81.591C407.679 78.1807 405.534 75.5672 402.728 73.7515C399.922 71.9359 396.429 71.0285 392.248 71.0285C387.626 71.0285 383.693 72.1005 380.446 74.2466C377.201 76.3927 374.725 79.4184 373.02 83.3239C371.314 87.2304 370.462 91.8794 370.462 97.2702V98.426C370.462 107.448 372.579 114.188 376.816 118.644C381.052 123.101 387.297 125.328 395.548 125.328C398.41 125.328 401.627 124.971 405.204 124.255C408.78 123.54 412.163 122.303 415.354 120.542C417.665 119.222 419.7 118.644 421.461 118.809C423.221 118.974 424.624 119.607 425.67 120.707C426.715 121.808 427.347 123.156 427.567 124.751C427.787 126.346 427.486 127.97 426.66 129.62C425.835 131.271 424.432 132.701 422.451 133.911C418.6 136.332 414.171 138.12 409.165 139.275C404.158 140.431 399.51 141.009 395.218 141.009ZM550.238 141.009C545.506 141.009 540.5 140.513 535.219 139.522C529.937 138.532 525.206 136.827 521.025 134.406C519.264 133.306 518.026 132.013 517.311 130.528C516.596 129.043 516.321 127.556 516.486 126.071C516.651 124.586 517.202 123.293 518.137 122.192C519.071 121.093 520.282 120.378 521.768 120.047C523.253 119.717 524.875 119.992 526.636 120.873C531.037 122.962 535.164 124.421 539.015 125.246C542.866 126.071 546.662 126.484 550.403 126.484C555.684 126.484 559.618 125.576 562.204 123.76C564.789 121.945 566.082 119.552 566.082 116.582C566.082 114.051 565.23 112.097 563.524 110.722C561.819 109.347 559.26 108.329 555.85 107.669L539.344 104.533C532.523 103.212 527.324 100.709 523.748 97.0226C520.172 93.3371 518.384 88.5785 518.384 82.747C518.384 77.4647 519.842 72.8984 522.758 69.0472C525.673 65.1969 529.717 62.2254 534.889 60.1356C540.06 58.0448 546.001 56.9994 552.714 56.9994C557.555 56.9994 562.094 57.5221 566.33 58.5675C570.567 59.6129 574.665 61.2352 578.626 63.4365C580.277 64.3162 581.404 65.4721 582.01 66.9021C582.614 68.3322 582.752 69.7908 582.422 71.2761C582.092 72.7613 581.432 74.0819 580.442 75.2368C579.452 76.3927 578.214 77.1077 576.727 77.3828C575.242 77.658 573.565 77.3552 571.694 76.4745C568.283 74.714 565.01 73.4487 561.874 72.6785C558.738 71.9082 555.74 71.5236 552.879 71.5236C547.487 71.5236 543.499 72.4586 540.913 74.3295C538.327 76.1993 537.035 78.6758 537.035 81.7568C537.035 84.0665 537.805 85.9926 539.344 87.5331C540.885 89.0736 543.251 90.119 546.442 90.6683L562.947 93.8046C570.099 95.1251 575.517 97.5453 579.204 101.067C582.89 104.588 584.733 109.319 584.733 115.261C584.733 123.293 581.597 129.592 575.325 134.158C569.054 138.724 560.691 141.009 550.238 141.009ZM470.867 140.678C468.117 140.678 465.724 139.963 463.688 138.532C461.653 137.102 459.974 134.902 458.654 131.93L432.412 71.0285C431.421 68.6073 431.064 66.3518 431.339 64.261C431.614 62.1712 432.604 60.4926 434.309 59.2273C436.015 57.9619 438.353 57.3298 441.324 57.3298C443.855 57.3298 445.891 57.9067 447.43 59.0626C448.971 60.2174 450.346 62.3911 451.557 65.5816L473.839 121.202H468.887L491.828 65.4169C493.039 62.3359 494.442 60.2174 496.037 59.0626C497.632 57.9067 499.806 57.3298 502.557 57.3298C504.977 57.3298 506.903 57.9619 508.333 59.2273C509.763 60.4926 510.644 62.1436 510.974 64.1792C511.304 66.2147 510.919 68.4426 509.818 70.8628L483.08 131.93C481.87 134.902 480.247 137.102 478.211 138.532C476.176 139.963 473.728 140.678 470.867 140.678ZM610.53 140.678C607.119 140.678 604.506 139.716 602.69 137.79C600.874 135.864 599.967 133.196 599.967 129.785V40.6595H567.782C564.922 40.6595 562.693 39.8616 561.099 38.2669C559.503 36.6711 558.705 34.4975 558.705 31.7469C558.705 28.8858 559.503 26.7132 561.099 25.2279C562.693 23.7427 564.922 23 567.782 23H653.277C656.138 23 658.366 23.7427 659.961 25.2279C661.557 26.7132 662.354 28.8858 662.354 31.7469C662.354 34.4975 661.557 36.6711 659.961 38.2669C658.366 39.8616 656.138 40.6595 653.277 40.6595H621.093V129.785C621.093 133.196 620.212 135.864 618.452 137.79C616.691 139.716 614.05 140.678 610.53 140.678ZM652.221 140.678C648.811 140.678 646.197 139.77 644.382 137.955C642.566 136.14 641.659 133.526 641.659 130.115V67.7276C641.659 64.3162 642.538 61.7303 644.299 59.9699C646.06 58.2095 648.536 57.3298 651.726 57.3298C654.918 57.3298 657.393 58.2095 659.153 59.9699C660.914 61.7303 661.794 64.3162 661.794 67.7276V78.1254H660.143C661.684 71.5236 664.71 66.5165 669.221 63.1061C673.733 59.6947 679.729 57.6592 687.212 56.9994C689.522 56.7795 691.365 57.3564 692.74 58.7322C694.116 60.108 694.913 62.2254 695.134 65.0865C695.354 67.8371 694.721 70.0649 693.235 71.7711C691.75 73.4763 689.522 74.4941 686.551 74.8245L682.921 75.1539C676.208 75.8147 671.147 77.8779 667.736 81.3435C664.325 84.8091 662.619 89.6782 662.619 95.9506V130.115C662.619 133.526 661.739 136.14 659.979 137.955C658.218 139.77 655.633 140.678 652.221 140.678ZM740.339 141.009C731.207 141.009 723.34 139.302 716.738 135.892C710.136 132.481 705.047 127.639 701.471 121.368C697.895 115.095 696.107 107.669 696.107 99.0858C696.107 90.7236 697.841 83.4067 701.306 77.1353C704.772 70.8628 709.558 65.9396 715.665 62.3635C721.772 58.7874 728.731 56.9994 736.543 56.9994C742.265 56.9994 747.41 57.9343 751.976 59.8052C756.542 61.6751 760.448 64.3714 763.694 67.8923C766.94 71.4131 769.415 75.6766 771.121 80.6838C772.827 85.6899 773.679 91.3291 773.679 97.6006C773.679 99.5809 772.991 101.094 771.616 102.139C770.241 103.185 768.288 103.707 765.756 103.707H712.777V91.8242H759.155L756.515 94.2996C756.515 89.2383 755.772 85.0024 754.287 81.591C752.8 78.1807 750.655 75.5672 747.849 73.7515C745.044 71.9359 741.551 71.0285 737.369 71.0285C732.747 71.0285 728.814 72.1005 725.567 74.2466C722.322 76.3927 719.846 79.4184 718.141 83.3239C716.435 87.2304 715.583 91.8794 715.583 97.2702V98.426C715.583 107.448 717.7 114.188 721.937 118.644C726.173 123.101 732.418 125.328 740.67 125.328C743.531 125.328 746.749 124.971 750.325 124.255C753.901 123.54 757.285 122.303 760.475 120.542C762.786 119.222 764.822 118.644 766.582 118.809C768.342 118.974 769.746 119.607 770.791 120.707C771.837 121.808 772.469 123.156 772.689 124.751C772.909 126.346 772.607 127.97 771.781 129.62C770.956 131.271 769.554 132.701 767.572 133.911C763.721 136.332 759.293 138.12 754.287 139.275C749.279 140.431 744.631 141.009 740.339 141.009ZM829.794 141.009C820.662 141.009 812.795 139.302 806.193 135.892C799.591 132.481 794.502 127.639 790.926 121.368C787.35 115.095 785.562 107.669 785.562 99.0858C785.562 90.7236 787.296 83.4067 790.761 77.1353C794.227 70.8628 799.013 65.9396 805.12 62.3635C811.227 58.7874 818.187 56.9994 825.998 56.9994C831.721 56.9994 836.865 57.9343 841.431 59.8052C845.997 61.6751 849.903 64.3714 853.149 67.8923C856.395 71.4131 858.87 75.6766 860.576 80.6838C862.282 85.6899 863.134 91.3291 863.134 97.6006C863.134 99.5809 862.447 101.094 861.071 102.139C859.696 103.185 857.743 103.707 855.212 103.707H802.232V91.8242H848.61L845.97 94.2996C845.97 89.2383 845.227 85.0024 843.742 81.591C842.256 78.1807 840.11 75.5672 837.305 73.7515C834.499 71.9359 831.006 71.0285 826.824 71.0285C822.203 71.0285 818.27 72.1005 815.023 74.2466C811.777 76.3927 809.302 79.4184 807.596 83.3239C805.89 87.2304 805.038 91.8794 805.038 97.2702V98.426C805.038 107.448 807.156 114.188 811.392 118.644C815.628 123.101 821.873 125.328 830.125 125.328C832.986 125.328 836.204 124.971 839.78 124.255C843.356 123.54 846.74 122.303 849.93 120.542C852.241 119.222 854.277 118.644 856.037 118.809C857.798 118.974 859.201 119.607 860.246 120.707C861.292 121.808 861.924 123.156 862.144 124.751C862.364 126.346 862.062 127.97 861.237 129.62C860.411 131.271 859.009 132.701 857.027 133.911C853.176 136.332 848.748 138.12 843.742 139.275C838.735 140.431 834.087 141.009 829.794 141.009Z" fill="black"/>
<path fill-rule="evenodd" clip-rule="evenodd" d="M863.002 32C872.391 32 880 39.6121 880 49.0001C880 58.3881 872.391 66 863.002 66C853.613 66 846 58.3881 846 49.0001C846 39.6121 853.613 32 863.002 32ZM855.134 58.9298V39.0702H863.578C865.7 39.0702 867.242 39.2508 868.206 39.6045C869.173 39.9657 869.941 40.5979 870.517 41.5084C871.096 42.4228 871.386 43.4612 871.386 44.639C871.386 46.129 870.953 47.3594 870.08 48.3302C869.207 49.301 867.901 49.9105 866.163 50.1664C867.028 50.6668 867.739 51.2239 868.3 51.8297C868.861 52.4355 869.621 53.5115 870.573 55.0543L872.996 58.9298H868.202L865.328 54.5951C864.297 53.0524 863.589 52.0855 863.205 51.6829C862.825 51.284 862.422 51.0094 861.997 50.8589C861.568 50.7121 860.891 50.6367 859.969 50.6367H859.152V58.9298H855.134ZM859.152 47.4724H862.121C864.044 47.4724 865.241 47.3933 865.726 47.2315C866.2 47.0697 866.577 46.7874 866.848 46.3886C867.119 45.9897 867.254 45.4932 867.254 44.8949C867.254 44.2251 867.074 43.687 866.716 43.2731C866.362 42.8592 865.858 42.6034 865.211 42.4943C864.883 42.4492 863.905 42.4265 862.283 42.4265H859.152V47.4724Z" fill="black"/>
</svg>
