<svg width="652" height="652" viewBox="0 0 652 652" fill="none" xmlns="http://www.w3.org/2000/svg">
<path d="M479.002 325.601C479.002 401.568 417.569 463.001 341.602 463.001H204.202V388.622H341.602C343.474 388.622 345.306 388.5 347.098 388.256C362.242 387.034 375.921 380.317 386.058 370.18C397.539 358.699 404.5 342.944 404.5 325.601C404.5 292.747 379.341 265.756 347.098 262.947C345.306 262.784 343.474 262.702 341.602 262.702H204.202V188.201H341.602C379.585 188.201 413.905 203.59 438.82 228.505C463.613 253.298 479.002 287.618 479.002 325.601Z" fill="#FF003C"/>
<path opacity="0.6" fill-rule="evenodd" clip-rule="evenodd" d="M237.544 388.622C233.392 389.477 229.117 389.843 204.202 389.843V463.001C278.092 463.001 324.259 432.712 347.098 388.256C345.306 388.5 343.474 388.622 341.602 388.622H237.544ZM341.602 262.702C343.474 262.702 345.306 262.784 347.098 262.947C324.381 218.612 278.092 188.201 204.202 188.201V261.481C229.117 261.481 233.392 261.848 237.544 262.702H341.602Z" fill="#5C0D0A"/>
<path d="M204.202 188.201V262.702C239.62 262.702 268.444 290.183 268.444 325.601C268.444 361.142 239.62 388.622 204.202 388.622V463.001C280.046 463.001 341.602 401.568 341.602 325.601C341.602 249.756 280.046 188.201 204.202 188.201Z" fill="#FF003C"/>
<circle cx="326" cy="326" r="272" stroke="white" stroke-width="108"/>
<path d="M87.389 348.854L88.3488 360.774L80.1427 361.358L79.1889 349.514C78.9301 346.3 78.0044 343.661 76.4119 341.599C74.794 339.539 72.5989 338.06 69.8265 337.162C67.0288 336.266 63.7445 335.971 59.9735 336.274L57.1262 336.503C54.2157 336.738 51.6724 337.261 49.4961 338.073C47.3199 338.885 45.5225 339.972 44.1038 341.335C42.6831 342.672 41.6528 344.27 41.013 346.131C40.3731 347.991 40.1469 350.085 40.3344 352.413L41.3309 364.789L33.093 365.453L32.0964 353.077C31.7989 349.382 32.1479 345.966 33.1435 342.829C34.137 339.666 35.7083 336.878 37.8573 334.463C39.9791 332.025 42.5991 330.082 45.7176 328.634C48.8339 327.16 52.3789 326.264 56.3523 325.944L59.1236 325.72C63.0718 325.403 66.7145 325.721 70.0519 326.675C73.3619 327.605 76.2591 329.104 78.7436 331.171C81.226 333.213 83.2116 335.728 84.7003 338.715C86.1891 341.703 87.0853 345.083 87.389 348.854ZM32.6038 359.379L87.8781 354.928L88.7187 365.367L33.4445 369.818L32.6038 359.379ZM81.7216 277.382L89.8939 278.325L86.5142 307.609L78.3419 306.666L81.7216 277.382ZM31.7935 298.073L86.881 304.431L85.6802 314.836L30.5927 308.478L31.7935 298.073ZM57.1041 278.413L65.0873 279.334L62.1486 304.797L54.1654 303.876L57.1041 278.413ZM34.7934 272.081L43.0035 273.028L39.6369 302.199L31.4267 301.252L34.7934 272.081ZM87.3963 249.489L49.1967 222.639L52.7632 211.584L99.5274 247.24L97.1536 254.598L87.3963 249.489ZM41.0345 247.939L87.7004 248.547L98.6386 249.995L96.2415 257.425L37.4796 258.957L41.0345 247.939ZM110.074 191.354C109.146 190.828 108.237 190.501 107.345 190.374C106.444 190.212 105.489 190.326 104.479 190.716C103.459 191.071 102.292 191.737 100.978 192.713C99.6548 193.655 98.0959 194.959 96.3017 196.626C94.3158 198.477 92.3293 200.122 90.3424 201.563C88.3555 203.004 86.3569 204.132 84.3464 204.946C82.3485 205.738 80.3559 206.11 78.3685 206.061C76.3591 206 74.3389 205.392 72.308 204.238C70.3212 203.109 68.7493 201.661 67.5924 199.894C66.448 198.105 65.7361 196.094 65.4568 193.862C65.1553 191.617 65.2866 189.253 65.8506 186.77C66.4272 184.265 67.4493 181.721 68.917 179.138C70.9491 175.562 73.3565 172.841 76.1392 170.977C78.9344 169.09 81.8545 168.062 84.8995 167.894C87.9445 167.726 90.8577 168.433 93.6393 170.013L88.4836 179.086C86.9825 178.233 85.4761 177.801 83.9644 177.789C82.4652 177.754 81.0207 178.189 79.6309 179.093C78.2536 179.975 77.0193 181.377 75.928 183.297C74.8743 185.152 74.2721 186.854 74.1216 188.404C73.9835 189.931 74.2135 191.274 74.8115 192.431C75.4221 193.567 76.3124 194.467 77.4824 195.132C78.3654 195.634 79.2793 195.876 80.2241 195.857C81.1467 195.827 82.1555 195.568 83.2503 195.08C84.323 194.58 85.4755 193.862 86.7078 192.927C87.9305 191.957 89.2661 190.789 90.7147 189.422C93.0147 187.224 95.2148 185.408 97.3151 183.973C99.428 182.516 101.479 181.477 103.468 180.855C105.469 180.211 107.431 179.996 109.352 180.212C111.286 180.406 113.236 181.061 115.201 182.177C117.276 183.357 118.898 184.819 120.067 186.564C121.237 188.309 121.963 190.269 122.245 192.445C122.528 194.62 122.358 196.948 121.738 199.428C121.129 201.886 120.079 204.428 118.586 207.055C117.257 209.395 115.63 211.538 113.708 213.482C111.776 215.392 109.653 216.917 107.341 218.056C105.007 219.183 102.555 219.746 99.9855 219.746C97.3935 219.734 94.7841 218.981 92.1571 217.488L97.3503 208.349C98.8735 209.214 100.314 209.712 101.672 209.841C103.02 209.935 104.293 209.724 105.492 209.208C106.681 208.657 107.781 207.851 108.793 206.791C109.804 205.73 110.718 204.482 111.533 203.047C112.587 201.193 113.199 199.526 113.368 198.045C113.528 196.53 113.314 195.211 112.726 194.088C112.15 192.943 111.266 192.032 110.074 191.354ZM106.314 128.654L148.192 165.004L141.352 172.885L99.4738 136.535L106.314 128.654ZM117.599 115.654L123.84 121.071L94.5556 154.809L88.3142 149.392L117.599 115.654ZM130.96 103.584L146.943 91.3177C150.286 88.7515 153.543 87.0521 156.713 86.2196C159.883 85.3871 162.87 85.4631 165.674 86.4476C168.478 87.4322 170.985 89.3646 173.196 92.2449C174.943 94.521 176.055 96.8041 176.532 99.0942C177.01 101.384 176.946 103.658 176.342 105.914C175.757 108.155 174.725 110.355 173.246 112.515L171.668 115.839L157.558 126.668L152.466 120.158L163.01 112.065C164.723 110.751 165.911 109.359 166.575 107.889C167.239 106.419 167.443 104.934 167.188 103.433C166.953 101.918 166.31 100.475 165.258 99.1052C164.13 97.6348 162.874 96.5823 161.491 95.9476C160.092 95.2928 158.594 95.1139 156.998 95.4109C155.402 95.708 153.727 96.529 151.975 97.8739L144.301 103.764L173.031 141.198L164.723 147.575L130.96 103.584ZM189.558 128.514L164.257 116.629L173.026 109.851L198.146 121.25L198.471 121.673L189.558 128.514ZM233.803 94.6061L237.458 101.976L211.05 115.075L207.395 107.705L233.803 94.6061ZM189.275 63.9758L213.916 113.653L204.533 118.307L179.892 68.6299L189.275 63.9758ZM219.542 74.5133L223.113 81.7124L200.151 93.1022L196.58 85.9031L219.542 74.5133ZM212.715 52.3491L216.387 59.753L190.081 72.8013L186.409 65.3974L212.715 52.3491ZM277.378 81.727L279.624 89.6409L251.267 97.6915L249.02 89.7776L277.378 81.727ZM239.2 43.4727L254.344 96.8178L244.269 99.6781L229.124 46.333L239.2 43.4727ZM267.031 59.3658L269.226 67.0965L244.568 74.0965L242.373 66.3659L267.031 59.3658ZM264.37 36.327L266.627 44.2774L238.379 52.2968L236.122 44.3464L264.37 36.327ZM313.803 29.9815L317.107 85.3362L306.652 85.9602L303.348 30.6056L313.803 29.9815ZM355.282 32.0197L350.976 87.3054L340.572 86.4952L344.878 31.2094L355.282 32.0197ZM372.445 33.3563L371.803 41.596L327.263 38.1273L327.905 29.8876L372.445 33.3563ZM423.996 91.1334C424.366 90.1331 424.541 89.1828 424.522 88.2825C424.535 87.3671 424.268 86.4426 423.72 85.5091C423.204 84.5606 422.358 83.517 421.182 82.3784C420.038 81.2248 418.499 79.8978 416.563 78.3972C414.415 76.7372 412.47 75.0436 410.726 73.3163C408.982 71.589 407.546 69.7993 406.417 67.9473C405.312 66.1041 404.622 64.198 404.348 62.229C404.083 60.2361 404.356 58.1442 405.166 55.9532C405.958 53.8097 407.132 52.0241 408.689 50.5962C410.269 49.1772 412.138 48.1491 414.295 47.5118C416.461 46.8508 418.815 46.5975 421.357 46.7519C423.922 46.9151 426.598 47.5117 429.385 48.5417C433.243 49.9677 436.317 51.9027 438.608 54.3466C440.923 56.7993 442.41 59.5144 443.069 62.492C443.728 65.4696 443.503 68.4588 442.393 71.4596L432.605 67.8416C433.204 66.2221 433.387 64.6655 433.154 63.1718C432.945 61.6869 432.281 60.3319 431.164 59.1069C430.071 57.8906 428.488 56.8996 426.416 56.1337C424.416 55.3943 422.638 55.0758 421.085 55.1782C419.555 55.2894 418.267 55.7338 417.222 56.5114C416.2 57.2978 415.456 58.3221 414.99 59.5844C414.637 60.537 414.547 61.478 414.718 62.4074C414.897 63.3129 415.316 64.2664 415.975 65.2677C416.642 66.2453 417.537 67.2663 418.659 68.3308C419.814 69.3804 421.184 70.5091 422.768 71.7171C425.309 73.6308 427.457 75.5078 429.213 77.3479C430.993 79.1969 432.351 81.0523 433.287 82.9142C434.247 84.7849 434.776 86.6858 434.874 88.617C434.996 90.557 434.665 92.5868 433.882 94.7064C433.055 96.9451 431.874 98.7827 430.342 100.219C428.809 101.656 426.992 102.69 424.891 103.321C422.79 103.952 420.466 104.162 417.918 103.951C415.394 103.749 412.715 103.124 409.881 102.077C407.357 101.144 404.979 99.8859 402.749 98.3035C400.551 96.7062 398.703 94.859 397.204 92.7621C395.714 90.6413 394.761 88.3129 394.345 85.777C393.938 83.2173 394.258 80.5203 395.305 77.6863L405.165 81.3307C404.558 82.974 404.3 84.4759 404.393 85.8366C404.518 87.1822 404.932 88.4046 405.636 89.5038C406.372 90.588 407.345 91.5433 408.556 92.3697C409.766 93.1961 411.146 93.8954 412.694 94.4676C414.694 95.207 416.439 95.5405 417.927 95.4681C419.448 95.3807 420.715 94.9557 421.728 94.1931C422.765 93.4394 423.52 92.4195 423.996 91.1334ZM471.622 123.97L467.359 131.006L442.147 115.731L446.41 108.695L471.622 123.97ZM473.619 69.9615L444.883 117.388L435.925 111.961L464.661 64.5341L473.619 69.9615ZM480.943 101.163L476.779 108.036L454.857 94.7534L459.021 87.8804L480.943 101.163ZM495.997 83.5202L491.714 90.5886L466.6 75.3722L470.883 68.3037L495.997 83.5202ZM510.179 94.4862L525.101 108.023C528.223 110.855 530.476 113.756 531.861 116.727C533.246 119.697 533.704 122.65 533.236 125.585C532.767 128.519 531.313 131.331 528.874 134.02C526.946 136.145 524.898 137.647 522.73 138.526C520.562 139.404 518.313 139.747 515.985 139.555C513.676 139.38 511.327 138.757 508.938 137.687L505.386 136.727L492.213 124.777L497.71 118.605L507.554 127.535C509.153 128.986 510.734 129.906 512.299 130.297C513.864 130.689 515.362 130.625 516.793 130.106C518.242 129.604 519.547 128.713 520.707 127.435C521.952 126.062 522.764 124.638 523.142 123.164C523.536 121.671 523.445 120.165 522.868 118.647C522.291 117.13 521.184 115.629 519.548 114.144L512.383 107.645L480.677 142.594L472.92 135.557L510.179 94.4862ZM496.107 156.592L503.286 129.577L511.52 136.995L504.787 163.746L504.428 164.141L496.107 156.592ZM528.459 178.422L572.662 163.38L579.492 172.776L523.128 189.549L518.582 183.295L528.459 178.422ZM557.03 141.878L529.041 179.223L521.426 187.208L516.835 180.892L550.222 132.513L557.03 141.878ZM591.643 194.783L542.389 220.26L537.577 210.957L586.831 185.48L591.643 194.783ZM574.444 255.584L577.773 265.514C574.169 266.428 570.725 266.498 567.44 265.725C564.178 264.944 561.273 263.307 558.723 260.814C556.174 258.321 554.181 254.932 552.744 250.647C551.638 247.349 551.219 244.182 551.487 241.147C551.787 238.127 552.706 235.315 554.243 232.711C555.812 230.123 557.96 227.823 560.686 225.811C563.437 223.791 566.726 222.139 570.554 220.856L574.562 219.512C578.39 218.229 582.014 217.576 585.434 217.555C588.855 217.533 591.963 218.097 594.759 219.249C597.587 220.416 600.035 222.126 602.103 224.379C604.178 226.655 605.769 229.443 606.874 232.741C608.311 237.026 608.731 240.915 608.135 244.409C607.563 247.895 606.179 250.916 603.984 253.473C601.788 256.03 598.965 258.075 595.515 259.606L592.186 249.676C594.336 248.741 596.053 247.63 597.335 246.343C598.626 245.08 599.414 243.557 599.7 241.774C600.018 240.007 599.761 237.884 598.93 235.404C598.284 233.478 597.354 231.902 596.14 230.676C594.933 229.474 593.446 228.633 591.679 228.154C589.936 227.668 587.912 227.543 585.608 227.779C583.329 228.008 580.792 228.591 578 229.527L573.919 230.895C571.247 231.791 568.924 232.81 566.951 233.954C564.978 235.098 563.41 236.373 562.249 237.78C561.087 239.187 560.363 240.742 560.077 242.445C559.791 244.147 559.982 245.998 560.652 247.996C561.467 250.427 562.514 252.272 563.793 253.531C565.08 254.813 566.603 255.601 568.362 255.895C570.129 256.214 572.156 256.11 574.444 255.584ZM574.761 314.581L566.599 315.61L562.913 286.363L571.074 285.334L574.761 314.581ZM618.33 282.601L563.313 289.537L562.003 279.145L617.02 272.21L618.33 282.601ZM598.426 307.721L590.453 308.726L587.247 283.295L595.22 282.29L598.426 307.721ZM621.603 308.561L613.403 309.595L609.73 280.461L617.93 279.427L621.603 308.561ZM579.048 352.667C580.112 352.734 581.073 352.629 581.93 352.353C582.811 352.103 583.619 351.581 584.356 350.788C585.117 350.022 585.874 348.912 586.627 347.459C587.404 346.032 588.233 344.176 589.115 341.891C590.089 339.358 591.153 337.008 592.307 334.842C593.461 332.676 594.764 330.786 596.214 329.173C597.662 327.586 599.29 326.378 601.098 325.551C602.931 324.725 605.013 324.385 607.344 324.532C609.625 324.676 611.672 325.289 613.487 326.37C615.3 327.476 616.821 328.972 618.05 330.855C619.305 332.741 620.224 334.923 620.805 337.402C621.385 339.906 621.581 342.641 621.395 345.606C621.136 349.711 620.165 353.211 618.481 356.107C616.796 359.029 614.622 361.232 611.958 362.718C609.295 364.204 606.367 364.846 603.174 364.644L603.831 354.23C605.554 354.338 607.098 354.067 608.462 353.415C609.824 352.788 610.932 351.764 611.784 350.342C612.636 348.946 613.131 347.145 613.27 344.941C613.404 342.812 613.199 341.018 612.655 339.559C612.11 338.126 611.314 337.02 610.269 336.242C609.223 335.489 608.028 335.07 606.685 334.985C605.671 334.921 604.744 335.105 603.903 335.535C603.087 335.967 602.294 336.642 601.524 337.56C600.779 338.48 600.057 339.63 599.36 341.011C598.686 342.419 597.998 344.054 597.295 345.918C596.191 348.901 595.01 351.498 593.751 353.709C592.49 355.944 591.103 357.778 589.588 359.208C588.071 360.665 586.402 361.717 584.58 362.365C582.757 363.039 580.718 363.305 578.463 363.163C576.081 363.013 573.982 362.41 572.165 361.354C570.349 360.298 568.838 358.854 567.63 357.023C566.423 355.191 565.554 353.025 565.025 350.524C564.494 348.048 564.324 345.302 564.514 342.287C564.683 339.601 565.206 336.962 566.082 334.372C566.981 331.808 568.22 329.507 569.799 327.47C571.403 325.434 573.36 323.853 575.669 322.726C578.005 321.601 580.68 321.134 583.695 321.324L583.034 331.815C581.285 331.705 579.773 331.889 578.496 332.368C577.243 332.875 576.191 333.622 575.34 334.612C574.512 335.628 573.877 336.835 573.432 338.231C572.988 339.628 572.714 341.15 572.61 342.797C572.476 344.926 572.657 346.693 573.154 348.098C573.674 349.53 574.445 350.621 575.466 351.373C576.486 352.149 577.68 352.581 579.048 352.667ZM569.941 415.882L574.791 402.449L582.529 405.243L577.678 418.676C576.885 420.873 576.601 422.781 576.826 424.401C577.066 426.054 577.702 427.431 578.735 428.533C579.792 429.643 581.144 430.496 582.792 431.091C584.392 431.669 586.001 431.885 587.619 431.741C589.237 431.596 590.726 430.986 592.086 429.912C593.437 428.861 594.509 427.237 595.303 425.04L598.989 414.83L554.605 398.804L558.163 388.953L610.32 407.786L603.076 427.847C601.61 431.907 599.631 435.106 597.14 437.446C594.664 439.818 591.876 441.295 588.778 441.877C585.694 442.492 582.529 442.212 579.281 441.04C575.913 439.824 573.288 438.012 571.404 435.604C569.511 433.22 568.43 430.346 568.16 426.982C567.881 423.642 568.475 419.942 569.941 415.882ZM587.353 464.654L576.746 481.783C574.527 485.366 572.082 488.108 569.412 490.008C566.742 491.909 563.921 492.895 560.95 492.966C557.979 493.038 554.95 492.118 551.863 490.206C549.424 488.695 547.576 486.954 546.319 484.98C545.062 483.007 544.317 480.859 544.084 478.534C543.838 476.231 544.024 473.808 544.644 471.265L544.943 467.598L554.308 452.477L561.374 456.763L554.376 468.064C553.24 469.899 552.621 471.621 552.52 473.231C552.419 474.841 552.753 476.302 553.523 477.615C554.28 478.95 555.392 480.072 556.86 480.981C558.435 481.956 559.983 482.496 561.501 482.601C563.041 482.718 564.505 482.355 565.893 481.513C567.281 480.67 568.556 479.309 569.719 477.431L574.813 469.207L534.694 444.362L540.208 435.458L587.353 464.654ZM523.726 462.074L551.595 464.236L545.792 473.679L518.263 471.907L517.81 471.626L523.726 462.074ZM548.583 521.457L506.292 485.588L513.067 477.601L555.358 513.469L548.583 521.457ZM490.988 514.71L510.115 557.305L501.402 564.988L479.41 510.448L485.209 505.335L490.988 514.71ZM530.054 539.723L490.245 515.365L481.581 508.534L487.437 503.37L538.739 532.066L530.054 539.723ZM466.608 576.114L456.663 527.5L466.248 521.935L476.17 580.295L470.043 583.852L466.608 576.114ZM431.564 542.07L468.914 574.775L473.963 581.576L467.803 585.152L421.946 547.653L431.564 542.07ZM442.534 559.526L438.385 552.379L464.109 537.445L468.259 544.593L442.534 559.526ZM416.079 607.28L398.248 554.772L408.129 551.417L425.961 603.925L416.079 607.28ZM399.779 612.816L397.121 604.99L439.423 590.625L442.081 598.45L399.779 612.816ZM339.88 574.633L338.772 566.481L367.982 562.513L369.09 570.665L339.88 574.633ZM372.277 617.892L364.812 562.944L375.191 561.534L382.655 616.482L372.277 617.892ZM346.967 598.231L345.886 590.268L371.284 586.817L372.366 594.78L346.967 598.231ZM346.35 621.414L345.238 613.225L374.335 609.272L375.447 617.461L346.35 621.414ZM276.268 570.073L277.268 561.907L304.94 565.296L303.94 573.461L276.268 570.073ZM295.062 619.953L301.802 564.912L312.198 566.185L305.458 621.227L295.062 619.953ZM245.662 611.184L259.705 557.539L269.837 560.191L255.794 613.837L245.662 611.184ZM221.071 601.79L212.893 597.88L217.225 553.682L185.577 584.818L177.365 580.891L219.876 539.752L226.438 542.89L221.071 601.79ZM225.194 603.761L217.188 599.933L232.29 564.643L239.667 549.215L249.116 553.733L225.194 603.761ZM181.282 582.764L173.242 578.92L197.164 528.892L206.613 533.41L199.236 548.837L181.282 582.764ZM146.488 561.692L179.253 516.953L187.703 523.141L154.938 567.88L146.488 561.692ZM115.737 533.336L154.538 493.718L161.993 501.02L123.193 540.637L115.737 533.336ZM103.438 521.29L109.221 515.386L141.138 546.645L135.356 552.549L103.438 521.29ZM110.396 450.674L117.159 445.99L133.943 470.224L127.18 474.908L110.396 450.674ZM86.5342 499.167L132.121 467.594L138.085 476.204L92.4976 507.777L86.5342 499.167ZM92.5791 467.693L99.1854 463.117L113.779 484.189L107.173 488.765L92.5791 467.693ZM71.6367 477.657L78.431 472.952L95.15 497.091L88.3558 501.797L71.6367 477.657ZM107.375 424.354L112.13 435.327L104.551 438.528L99.8268 427.625C98.5447 424.666 96.8173 422.467 94.6445 421.029C92.4484 419.601 89.8935 418.909 86.9798 418.954C84.0428 419.009 80.8386 419.789 77.3672 421.293L74.7462 422.429C72.067 423.589 69.8285 424.905 68.0306 426.376C66.2328 427.847 64.8823 429.456 63.9791 431.203C63.0658 432.927 62.6063 434.773 62.6008 436.74C62.5953 438.707 63.0569 440.762 63.9856 442.905L68.9219 454.298L61.3386 457.584L56.4023 446.191C54.9284 442.79 54.1566 439.444 54.0869 436.153C54.007 432.84 54.5946 429.694 55.8496 426.715C57.0713 423.722 58.9243 421.038 61.4086 418.661C63.8829 416.261 66.9489 414.268 70.6066 412.683L73.1577 411.578C76.7922 410.003 80.3427 409.129 83.8094 408.955C87.2426 408.768 90.4685 409.252 93.487 410.407C96.4954 411.538 99.1862 413.278 101.559 415.626C103.932 417.973 105.871 420.883 107.375 424.354ZM58.9158 451.992L109.798 429.946L113.962 439.556L63.0799 461.603L58.9158 451.992Z" fill="#090B0E"/>
</svg>
