<svg width="199" height="47" viewBox="0 0 199 47" fill="none" xmlns="http://www.w3.org/2000/svg">
<g clip-path="url(#clip0_422_1109)">
<path fill-rule="evenodd" clip-rule="evenodd" d="M47.2708 46.7481V46.8909C52.4333 41.7919 55.3846 37.3733 56.1245 33.0555C49.6777 34.3155 47.2963 38.3225 47.2708 46.7397V46.7481ZM56.099 28.5445C49.7373 31.0562 47.2963 36.6256 47.2708 46.7481C47.2708 46.7985 47.2708 46.8489 47.2708 46.8909C52.4163 41.8087 56.065 37.1885 58.2167 32.7531C57.4768 32.8287 56.7794 32.9295 56.1245 33.0555C56.3797 31.5434 56.3712 30.0482 56.0905 28.5445H56.099Z" fill="#7CA33F"/>
<path fill-rule="evenodd" clip-rule="evenodd" d="M61.7378 32.6019C61.7378 43.2367 58.0381 46.8909 47.2708 46.8909C62.3502 46.8909 67.5297 41.7751 67.5297 26.8812C64.7146 26.8812 62.2481 27.0576 60.0878 27.444C59.7136 29.1913 59.0843 30.9554 58.2167 32.7531C59.2969 32.6439 60.4706 32.5935 61.7463 32.5935L61.7378 32.6019Z" fill="#7CA33F"/>
<path fill-rule="evenodd" clip-rule="evenodd" d="M27.0118 26.8812C27.0118 41.7751 32.1914 46.8909 47.2708 46.8909C40.033 39.7422 35.7635 33.5091 34.4537 27.444C32.3019 27.0576 29.827 26.8812 27.0118 26.8812Z" fill="#7CA33F"/>
<path fill-rule="evenodd" clip-rule="evenodd" d="M47.2708 46.8908C22.1385 46.8908 13.5059 38.3644 13.5059 13.5414C22.7849 13.5414 29.8185 14.7006 34.9981 17.4223C35.6189 15.4819 36.546 13.5078 37.7707 11.4917C30.4224 3.45254 18.3538 0.201599 0 0.201599C0 34.9539 12.0856 46.8908 47.2708 46.8908Z" fill="#4F4F4F"/>
<path fill-rule="evenodd" clip-rule="evenodd" d="M47.2623 45.4124C47.1517 34.6936 45.8335 26.2176 42.9673 19.6401C42.2614 20.539 41.6235 21.4126 41.0792 22.2779C45.2721 27.3265 47.1177 34.8196 47.2708 45.4124H47.2623Z" fill="#4F4F4F"/>
<path d="M71.3485 26.9484H75.0056L79.6238 40.6158L84.2676 26.9484H87.9162L91.2417 46.5381H87.6015L85.4838 34.1643L81.2823 46.5381H77.9484L73.7639 34.1643L71.6036 46.5381H67.921L71.34 26.9484H71.3485ZM127.847 40.3218H116.034C116.204 41.355 116.663 42.1783 117.395 42.7915C118.134 43.4047 119.079 43.7071 120.218 43.7071C121.588 43.7071 122.761 43.2283 123.748 42.2707L126.835 43.7155C126.07 44.7992 125.143 45.5972 124.071 46.118C122.991 46.6389 121.715 46.8993 120.244 46.8993C117.947 46.8993 116.085 46.1852 114.639 44.7488C113.202 43.3207 112.479 41.5314 112.479 39.3809C112.479 37.2305 113.202 35.3404 114.639 33.8871C116.076 32.4254 117.888 31.703 120.065 31.703C122.37 31.703 124.25 32.4338 125.695 33.8787C127.141 35.332 127.864 37.2473 127.864 39.633L127.847 40.3218ZM124.19 37.4825C123.943 36.6928 123.467 36.046 122.753 35.5504C122.038 35.0548 121.205 34.8111 120.261 34.8111C119.232 34.8111 118.339 35.0884 117.556 35.6512C117.071 35.9956 116.621 36.6088 116.204 37.4909H124.19V37.4825ZM97.8926 32.0474H101.567V33.5427C102.4 32.8539 103.157 32.375 103.838 32.0978C104.518 31.829 105.207 31.6946 105.921 31.6946C107.376 31.6946 108.617 32.1986 109.629 33.1983C110.48 34.0551 110.905 35.3152 110.905 36.9784V46.5381H107.257V40.2042C107.257 38.4737 107.18 37.3313 107.018 36.7684C106.865 36.1972 106.585 35.7688 106.202 35.4748C105.811 35.1808 105.326 35.0296 104.756 35.0296C104.008 35.0296 103.37 35.2732 102.834 35.7688C102.298 36.256 101.932 36.9448 101.728 37.8101C101.626 38.2637 101.567 39.2465 101.567 40.7502V46.5548H97.8926V32.0642V32.0474ZM94.0398 26.1C94.6862 26.1 95.239 26.3352 95.6983 26.7888C96.1661 27.2508 96.3957 27.8052 96.3957 28.4605C96.3957 29.1157 96.1661 29.6533 95.7068 30.1153C95.2475 30.569 94.7032 30.7958 94.0653 30.7958C93.4275 30.7958 92.8576 30.5606 92.3898 30.0985C91.9221 29.6365 91.6924 29.0737 91.6924 28.4101C91.6924 27.7464 91.9221 27.234 92.3813 26.7804C92.8406 26.3268 93.3934 26.1 94.0398 26.1ZM92.1942 32.0474H95.8684V46.5381H92.1942V32.0474Z" fill="#4F4F4F"/>
<path fill-rule="evenodd" clip-rule="evenodd" d="M34.9981 17.4224C33.9094 20.7994 33.7308 24.1007 34.4538 27.4441C35.9251 27.7045 37.2604 28.0741 38.4511 28.5445C38.8338 26.5032 39.7099 24.4367 41.0792 22.2778C39.4292 20.2953 37.422 18.6909 35.0066 17.4224H34.9981Z" fill="#68883A"/>
<path fill-rule="evenodd" clip-rule="evenodd" d="M47.2708 46.7481C47.2453 36.6256 44.8044 31.0562 38.4426 28.5445C37.3625 34.3743 40.2967 40.011 47.2708 46.8909C47.2708 46.8405 47.2708 46.7901 47.2708 46.7481Z" fill="#68883A"/>
<path fill-rule="evenodd" clip-rule="evenodd" d="M47.2708 14.8939C52.3653 19.9257 55.2995 24.2855 56.099 28.5445C57.2897 28.074 58.6165 27.7128 60.0964 27.444C61.9845 18.6992 57.7065 10.2989 47.2793 -0.00836182C43.1459 4.07421 39.9735 7.86278 37.7792 11.4833C39.8885 13.7934 41.6065 16.4899 42.9758 19.6233C44.1835 18.1028 45.6208 16.5235 47.2793 14.8771L47.2708 14.8939Z" fill="#68883A"/>
<path d="M131.861 26.9483H135.519L140.137 40.6157L144.781 26.9483H148.429L151.755 46.538H148.115L145.997 34.1642L141.795 46.538H138.461L134.277 34.1642L132.117 46.538H128.434L131.853 26.9483H131.861ZM195.326 26.4611H199V46.5464H195.326V45.0007C194.611 45.6727 193.888 46.16 193.166 46.454C192.443 46.748 191.652 46.8992 190.81 46.8992C188.905 46.8992 187.272 46.1768 185.885 44.7235C184.499 43.2786 183.81 41.4726 183.81 39.3221C183.81 37.1716 184.482 35.2647 185.826 33.8366C187.17 32.417 188.794 31.7029 190.708 31.7029C191.592 31.7029 192.417 31.871 193.191 32.1902C193.965 32.5178 194.679 33.005 195.334 33.6602V26.4695L195.326 26.4611ZM191.456 35.0211C190.316 35.0211 189.364 35.4159 188.615 36.2139C187.858 37.0036 187.484 38.02 187.484 39.2633C187.484 40.5065 187.867 41.5398 188.632 42.3546C189.398 43.161 190.342 43.5643 191.465 43.5643C192.587 43.5643 193.582 43.1694 194.339 42.3714C195.105 41.5818 195.487 40.5401 195.487 39.2549C195.487 37.9696 195.105 36.9784 194.339 36.1971C193.582 35.4159 192.613 35.0295 191.448 35.0295L191.456 35.0211ZM169.198 32.0474H172.873V33.5426C173.706 32.8538 174.463 32.375 175.143 32.0978C175.824 31.8289 176.513 31.6945 177.227 31.6945C178.682 31.6945 179.923 32.1986 180.935 33.1982C181.786 34.055 182.211 35.3151 182.211 36.9784V46.538H178.562V40.2041C178.562 38.4736 178.486 37.3312 178.324 36.7684C178.171 36.1971 177.891 35.7687 177.508 35.4747C177.117 35.1807 176.632 35.0295 176.062 35.0295C175.314 35.0295 174.676 35.2731 174.14 35.7687C173.604 36.2559 173.238 36.9448 173.034 37.81C172.932 38.2636 172.873 39.2465 172.873 40.7501V46.5548H169.198V32.0642V32.0474ZM167.497 40.3217H155.684C155.854 41.355 156.313 42.1782 157.045 42.7914C157.785 43.4046 158.729 43.7071 159.868 43.7071C161.238 43.7071 162.411 43.2282 163.398 42.2706L166.485 43.7155C165.72 44.7991 164.793 45.5971 163.721 46.118C162.641 46.6388 161.365 46.8992 159.894 46.8992C157.598 46.8992 155.735 46.1852 154.289 44.7487C152.852 43.3206 152.129 41.5314 152.129 39.3809C152.129 37.2304 152.852 35.3403 154.289 33.887C155.727 32.4254 157.538 31.7029 159.715 31.7029C162.02 31.7029 163.9 32.4338 165.346 33.8786C166.792 35.3319 167.514 37.2472 167.514 39.6329L167.497 40.3217ZM163.84 37.4824C163.594 36.6928 163.117 36.0459 162.403 35.5503C161.689 35.0547 160.855 34.8111 159.911 34.8111C158.882 34.8111 157.989 35.0883 157.206 35.6511C156.722 35.9955 156.271 36.6088 155.854 37.4908H163.84V37.4824Z" fill="#68883A"/>
</g>
<defs>
<clipPath id="clip0_422_1109">
<rect width="199" height="46.8908" fill="white"/>
</clipPath>
</defs>
</svg>
